#!OML:ASF I:\golf\golf\golf 2\Subject 1\2002-09-07\Subject1.ASF
:FULLY-SPECIFIED
:DEGREES
199
root -7.80986 17.3002 2.62394 -1.31305 52.9859 -16.8336
lowerback 5.46736 -10.9354 -12.5243
upperback -0.637934 -15.3165 -1.25288
thorax -0.828295 -7.50514 5.93763
lowerneck -5.55571 20.7926 1.76921
upperneck 14.9307 30.6845 -12.7086
head 7.84607 13.8504 -1.25869
rclavicle -2.18663e-015 2.8625e-014
rhumerus 28.3228 -23.0858 -58.1734
rradius 113.447
rwrist 4.28913
rhand -60.3649 34.2989
rfingers 7.12502
rthumb -32.4991 7.19436
lclavicle -2.18663e-015 2.8625e-014
lhumerus 111.755 -40.7197 43.6518
lradius 43.0115
lwrist 0.2676
lhand -26.4363 -5.15853
lfingers 7.12502
lthumb -179.876 -155.179
rfemur -37.93 14.2042 26.7112
rtibia 42.6489
rfoot -12.9168 16.3022
rtoes 20.6508
lfemur -1.48724 3.24601 4.63205
ltibia 17.3444
lfoot -19.9208 30.0733
ltoes -2.09605
200
root -7.81134 17.3003 2.61426 -1.12796 52.7677 -16.678
lowerback 5.48714 -10.941 -12.5379
upperback -0.685619 -15.332 -1.28163
thorax -0.89175 -7.50597 5.92611
lowerneck -5.39534 20.8179 1.86413
upperneck 14.6762 30.7126 -12.9872
head 7.79881 13.873 -1.36482
rclavicle 1.60618e-013 2.22639e-014
rhumerus 28.7271 -23.5126 -57.7666
rradius 113.395
rwrist 4.79933
rhand -60.4576 32.9322
rfingers 7.12502
rthumb -32.5874 5.8458
lclavicle 1.60618e-013 2.22639e-014
lhumerus 112.02 -40.5992 43.8676
lradius 43.1136
lwrist 0.309224
lhand -26.5122 -5.32173
lfingers 7.12502
lthumb -179.949 -155.342
rfemur -37.9666 14.4343 26.5698
rtibia 42.5652
rfoot -12.9786 16.2501
rtoes 20.0951
lfemur -1.47535 3.45057 4.51652
ltibia 17.3807
lfoot -20.0939 30.0188
ltoes -1.71208
201
root -7.81362 17.3021 2.60461 -1.00779 52.5363 -16.5322
lowerback 5.53733 -10.9362 -12.5837
upperback -0.671601 -15.3342 -1.34231
thorax -0.909407 -7.50461 5.89696
lowerneck -5.34993 20.9365 1.85777
upperneck 14.5149 30.8343 -12.9664
head 7.74218 13.946 -1.35604
rclavicle -4.6615e-014 1.90833e-014
rhumerus 29.0689 -23.9576 -57.4197
rradius 113.414
rwrist 5.08419
rhand -60.5707 32.1072
rfingers 7.12502
rthumb -32.695 5.04316
lclavicle -4.6615e-014 1.90833e-014
lhumerus 112.288 -40.4333 43.9946
lradius 43.2677
lwrist 0.486967
lhand -26.5581 -5.52872
lfingers 7.12502
lthumb -179.993 -155.549
rfemur -37.917 14.64 26.4622
rtibia 42.4428
rfoot -13.0288 16.2193
rtoes 19.5262
lfemur -1.41063 3.67345 4.41063
ltibia 17.4387
lfoot -20.3429 29.8598
ltoes -0.809427
202
root -7.81405 17.3096 2.59534 -1.00814 52.3594 -16.4602
lowerback 5.6454 -10.9455 -12.6067
upperback -0.630144 -15.3603 -1.39051
thorax -0.927389 -7.51681 5.87738
lowerneck -5.52033 20.9532 2.08088
upperneck 14.611 30.9105 -13.1656
head 7.87669 13.9539 -1.38781
rclavicle -5.2181e-014 -3.49861e-014
rhumerus 29.3791 -24.3277 -57.0289
rradius 113.406
rwrist 5.07097
rhand -60.6564 32.1663
rfingers 7.12502
rthumb -32.7765 5.11924
lclavicle -5.2181e-014 -3.49861e-014
lhumerus 112.522 -40.2353 44.1014
lradius 43.3878
lwrist 0.753398
lhand -26.6413 -5.6809
lfingers 7.12502
lthumb -180.074 -155.701
rfemur -37.7854 14.7985 26.4051
rtibia 42.3003
rfoot -13.0677 16.2535
rtoes 19.181
lfemur -1.33521 3.83113 4.33458
ltibia 17.4835
lfoot -19.8573 30.1434
ltoes -2.34387
203
root -7.81403 17.3199 2.58466 -0.961548 52.228 -16.4063
lowerback 5.72188 -10.9845 -12.6465
upperback -0.618403 -15.4246 -1.36295
thorax -0.927375 -7.54926 5.93509
lowerneck -5.62932 21.0383 2.01001
upperneck 14.5586 31.0355 -13.2115
head 7.88509 14.0019 -1.36624
rclavicle 1.44019e-013 1.27222e-014
rhumerus 29.7377 -24.6124 -56.6012
rradius 113.33
rwrist 5.00274
rhand -60.7921 32.1622
rfingers 7.12502
rthumb -32.9056 5.14212
lclavicle 1.44019e-013 1.27222e-014
lhumerus 112.743 -39.9763 44.2523
lradius 43.3564
lwrist 0.749059
lhand -27.0792 -5.67466
lfingers 7.12502
lthumb -180.497 -155.695
rfemur -37.7504 14.9672 26.3092
rtibia 42.1572
rfoot -13.1109 16.2921
rtoes 18.7884
lfemur -1.36508 3.93548 4.25211
ltibia 17.534
lfoot -19.2769 30.5017
ltoes -4.00246
204
root -7.81754 17.3212 2.56942 -0.918168 52.0961 -16.4428
lowerback 5.71702 -11.0072 -12.598
upperback -0.599438 -15.4496 -1.33326
thorax -0.903709 -7.56527 5.93659
lowerneck -5.67497 21.0967 1.91711
upperneck 14.4132 31.104 -13.2705
head 7.84608 14.0335 -1.3666
rclavicle 1.50381e-013 -4.45278e-014
rhumerus 30.029 -24.9155 -56.2167
rradius 113.277
rwrist 4.91566
rhand -60.8009 32.0757
rfingers 7.12502
rthumb -32.914 5.05741
lclavicle 1.50381e-013 -4.45278e-014
lhumerus 113.185 -39.6707 44.2517
lradius 43.2115
lwrist 0.779252
lhand -27.496 -5.50503
lfingers 7.12502
lthumb -180.899 -155.527
rfemur -37.8259 15.1008 26.2659
rtibia 42.0235
rfoot -13.0709 16.3158
rtoes 18.4872
lfemur -1.43188 4.04579 4.24604
ltibia 17.5968
lfoot -19.659 30.3261
ltoes -2.79752
205
root -7.8231 17.3202 2.55267 -0.939197 51.9737 -16.4561
lowerback 5.77064 -10.9843 -12.61
upperback -0.542817 -15.4228 -1.34768
thorax -0.878715 -7.55553 5.93342
lowerneck -5.59412 21.1006 1.95917
upperneck 14.2521 31.0894 -13.3836
head 7.8036 14.0366 -1.41822
rclavicle 2.48481e-014 -2.22639e-014
rhumerus 30.1937 -25.2787 -55.8819
rradius 113.213
rwrist 4.87393
rhand -60.801 31.4645
rfingers 7.12502
rthumb -32.9141 4.44621
lclavicle 2.48481e-014 -2.22639e-014
lhumerus 113.503 -39.5254 44.2837
lradius 43.2298
lwrist 0.898707
lhand -27.5419 -5.34383
lfingers 7.12502
lthumb -180.943 -155.366
rfemur -37.8008 15.1676 26.251
rtibia 41.893
rfoot -13.0107 16.3586
rtoes 18.1943
lfemur -1.43439 4.19595 4.24028
ltibia 17.6807
lfoot -19.9845 30.1397
ltoes -1.9879
206
root -7.82819 17.324 2.53574 -0.942954 51.8895 -16.4348
lowerback 5.84662 -10.9772 -12.6509
upperback -0.480795 -15.4213 -1.35079
thorax -0.845117 -7.559 5.9577
lowerneck -5.6199 21.1139 1.92176
upperneck 14.1694 31.1081 -13.4634
head 7.79032 14.0416 -1.4341
rclavicle -3.11098e-014 3.81667e-014
rhumerus 30.3726 -25.6145 -55.6205
rradius 113.163
rwrist 4.65588
rhand -60.8619 30.9778
rfingers 7.12502
rthumb -32.972 3.97166
lclavicle -3.11098e-014 3.81667e-014
lhumerus 113.54 -39.4468 44.4332
lradius 43.3964
lwrist 0.806261
lhand -27.5983 -5.21458
lfingers 7.12502
lthumb -180.998 -155.237
rfemur -37.7436 15.2853 26.1793
rtibia 41.7387
rfoot -12.9705 16.324
rtoes 17.8562
lfemur -1.47648 4.41299 4.21849
ltibia 17.8359
lfoot -19.9278 29.9858
ltoes -2.36248
207
root -7.83267 17.3296 2.51662 -0.847922 51.854 -16.3767
lowerback 5.90498 -11.0039 -12.6308
upperback -0.470112 -15.4633 -1.3614
thorax -0.865948 -7.57889 5.94748
lowerneck -5.77365 21.1452 1.8462
upperneck 14.2361 31.1847 -13.4998
head 7.83993 14.0548 -1.40525
rclavicle -1.02573e-013 -5.08889e-014
rhumerus 30.524 -25.8846 -55.3775
rradius 113.15
rwrist 4.17918
rhand -60.7397 30.9719
rfingers 7.12502
rthumb -32.8557 3.94138
lclavicle -1.02573e-013 -5.08889e-014
lhumerus 113.595 -39.3644 44.5555
lradius 43.3656
lwrist 0.581591
lhand -27.8366 -5.03713
lfingers 7.12502
lthumb -181.228 -155.061
rfemur -37.7533 15.4503 26.0145
rtibia 41.5504
rfoot -12.8689 16.232
rtoes 17.7937
lfemur -1.66111 4.74175 4.16598
ltibia 18.0678
lfoot -19.9233 29.5884
ltoes -2.03427
208
root -7.83708 17.3402 2.49867 -0.761551 51.8107 -16.281
lowerback 6.0179 -10.9904 -12.6627
upperback -0.471723 -15.4644 -1.39078
thorax -0.929659 -7.57407 5.95925
lowerneck -5.83025 21.1511 1.8976
upperneck 14.3424 31.2349 -13.5909
head 7.91331 14.0588 -1.41282
rclavicle 1.93716e-013 -3.18055e-014
rhumerus 30.4721 -26.0861 -54.9658
rradius 113.057
rwrist 3.80167
rhand -60.7244 30.8622
rfingers 7.12502
rthumb -32.8412 3.82866
lclavicle 1.93716e-013 -3.18055e-014
lhumerus 113.74 -39.3405 44.6391
lradius 43.2515
lwrist 0.64479
lhand -27.8391 -4.83906
lfingers 7.12502
lthumb -181.23 -154.863
rfemur -37.7007 15.6179 25.836
rtibia 41.3308
rfoot -12.7517 16.1751
rtoes 17.7456
lfemur -1.93512 5.17171 4.07491
ltibia 18.3525
lfoot -19.5318 29.4854
ltoes -2.56572
